<?xml version="1.0" standalone="no"?>
<!DOCTYPE svg PUBLIC "-//W3C//DTD SVG 20010904//EN"
 "http://www.w3.org/TR/2001/REC-SVG-20010904/DTD/svg10.dtd">
<svg version="1.0" xmlns="http://www.w3.org/2000/svg"
 width="1024.000000pt" height="1024.000000pt" viewBox="0 0 1024.000000 1024.000000"
 preserveAspectRatio="xMidYMid meet">

<g transform="translate(0.000000,1024.000000) scale(0.100000,-0.100000)"
fill="#000000" stroke="none">
<path d="M0 5120 l0 -5120 5120 0 5120 0 0 5120 0 5120 -5120 0 -5120 0 0
-5120z m8560 0 l0 -3440 -3440 0 -3440 0 0 3440 0 3440 3440 0 3440 0 0 -3440z"/>
<path d="M2050 5120 l0 -3070 3073 0 3072 0 -2 1387 c-1 764 -2 2145 -3 3071
l0 1682 -3070 0 -3070 0 0 -3070z m2177 1801 c221 -46 421 -171 567 -353 333
-416 308 -1006 -58 -1386 -81 -84 -168 -153 -241 -189 -27 -14 -52 -27 -54
-29 -2 -2 129 -189 291 -416 163 -227 428 -600 591 -828 l296 -415 -317 -3
-317 -3 -15 23 c-8 12 -173 243 -365 513 -193 269 -438 613 -544 763 l-193
272 -211 -2 -212 -3 -3 -782 -2 -783 -250 0 -250 0 0 1820 0 1820 598 0 c547
0 605 -2 689 -19z m1405 -703 l3 -722 329 464 c182 256 408 575 503 709 96
134 177 250 181 258 7 11 67 13 329 11 l321 -3 -422 -591 c-761 -1068 -856
-1201 -861 -1216 -4 -10 224 -339 639 -919 l644 -904 -316 -3 -317 -3 -22 28
c-12 15 -62 84 -111 153 -259 365 -594 837 -657 925 -39 55 -109 153 -156 218
l-84 119 -5 -560 -5 -560 -75 105 c-41 59 -155 219 -252 356 l-178 250 0 1304
0 1303 255 0 255 0 2 -722z"/>
<path d="M3442 5908 l3 -533 315 0 c276 0 322 2 375 18 312 95 468 440 336
739 -53 117 -168 225 -296 275 l-70 27 -333 4 -332 3 2 -533z"/>
</g>
</svg>
